<svg width="29" height="29" viewBox="0 0 29 29" fill="none" xmlns="http://www.w3.org/2000/svg">
<path d="M29 14.4958C29.0006 17.3643 28.1505 20.1686 26.5572 22.5538C24.964 24.9391 22.6992 26.7982 20.0493 27.896C17.3994 28.9938 14.4835 29.281 11.6704 28.7212C8.85732 28.1614 6.27342 26.7798 4.24555 24.7512C2.89498 23.4075 1.82433 21.8092 1.09559 20.0489C0.366849 18.2885 -0.00551231 16.4011 6.16644e-05 14.4958H1.95429C1.95429 21.414 7.5825 27.0427 14.5 27.0427C21.4176 27.0427 27.0458 21.414 27.0458 14.4958C27.0458 7.57772 21.4176 1.94902 14.5 1.94902C12.795 1.94899 11.1079 2.29704 9.54213 2.97185C7.97632 3.64667 6.56472 4.63404 5.39379 5.8735H9.2095V7.8279H2.35141V0.974432H4.30629V4.19475C6.3392 2.18194 8.92217 0.815696 11.7299 0.268068C14.5377 -0.27956 17.4447 0.015914 20.0849 1.11728C22.7251 2.21865 24.9804 4.07666 26.5668 6.45735C28.1532 8.83803 28.9998 11.6349 29 14.4958ZM14.1081 6.85331V16.0636H22.1419V14.1039H16.0676V6.85331H14.1081Z" fill="#2F0000"/>
</svg>
