<svg width="27" height="29" viewBox="0 0 27 29" fill="none" xmlns="http://www.w3.org/2000/svg">
<path d="M9.08081 5.96847V0M17.5404 5.96847V0M1 9.5V26C1 27.1046 1.89543 28 3 28H24C25.1046 28 26 27.1046 26 26V9.5M1 9.5V4.81531C1 3.71074 1.89543 2.81532 3 2.81532H24C25.1046 2.81532 26 3.71075 26 4.81532V9.5M1 9.5H26M8 15.8005V16.0418C8 17.3124 6.97003 18.3423 5.69949 18.3423V18.3423C4.42896 18.3423 3.39899 17.3124 3.39899 16.0418V15.8005C3.39899 14.53 4.42896 13.5 5.69949 13.5V13.5C6.97003 13.5 8 14.53 8 15.8005Z" stroke="black" stroke-width="2"/>
</svg>
