<svg width="111" height="34" viewBox="0 0 111 34" fill="none" xmlns="http://www.w3.org/2000/svg">
<path d="M0 11.3C0 10.0927 0 9.48905 0.0520786 8.98076C0.535326 4.26422 4.26422 0.535326 8.98076 0.0520786C9.48905 0 10.0927 0 11.3 0H111V22.6627C111 23.87 111 24.4736 110.948 24.9819C110.465 29.6985 106.736 33.4274 102.019 33.9106C101.511 33.9627 100.907 33.9627 99.7 33.9627H0V11.3Z" fill="#00B428"/>
<path d="M36.8645 4.33024C35.521 4.51731 33.718 4.64906 31.6839 4.73875C28.731 5.28252 25.7202 6.23789 25.4825 7.76458C24.7853 12.2434 25.5149 17.7871 23.4116 21.8141C22.5154 23.53 29.0018 16.591 27.9285 18.096C27.0909 19.2704 26.0885 21.4608 27.6676 22.5521C29.0686 23.5203 30.4108 20.1857 30.1095 19.172C29.9071 18.9808 29.9088 18.813 30.0483 19.0326C30.0734 19.0721 30.0937 19.1188 30.1095 19.172C30.3329 19.383 30.8047 19.6225 31.6138 19.4016C32.4964 19.1606 32.9914 18.7592 33.457 18.2315C33.4374 16.2138 33.8938 15.6549 37.5167 17.8547C39.7683 19.2218 40.1118 19.1447 37.7124 20.8775C37.0549 21.3523 32.8815 24.1308 33.9945 23.5739C36.3953 22.3725 39.8461 20.8887 41.8638 19.1928C41.7344 19.0341 41.6953 18.8105 41.7727 18.5075C41.9463 17.8275 42.4257 18.5995 42.716 19.5112C44.6051 19.6282 48.5942 18.043 49.0128 17.8973C49.4726 17.7372 49.175 18.5539 48.6792 19.5331C49.8442 18.1838 52.5779 15.72 52.6165 18.4082C52.6328 19.5383 50.8171 23.5894 52.0947 21.133C52.341 20.6593 55.2469 15.8161 55.7148 16.8897C56.3665 18.3849 56.1595 20.0861 55.6821 21.5871C55.6427 21.7112 54.9094 23.9258 55.2419 23.8577C55.9041 23.7221 57.2203 22.8899 58.4655 21.8876C57.2388 22.6278 55.803 22.661 56.5138 20.6504C56.8645 19.6584 61.3894 16.8369 61.3894 18.4224C61.3894 18.4509 61.3875 18.4803 61.3838 18.5106C61.7387 18.0637 61.9434 17.8701 61.7808 18.2947C61.557 18.879 59.674 23.0619 60.7698 23.1623C63.2649 23.3909 64.0113 20.2184 64.7649 18.8339C65.1518 18.1231 65.1493 20.7268 64.954 21.8581C65.1432 21.1909 65.5391 19.8989 65.8248 19.4016C66.4762 18.2677 68.1052 17.0011 69.0535 18.7488C69.543 19.6509 69.3778 20.8284 69.6405 21.8C69.7693 22.2762 70.0834 22.4115 70.486 22.3403C69.7851 20.4785 77.0156 15.6049 73.8313 19.8131C73.4886 20.2661 71.6302 22.1378 70.486 22.3403C70.5321 22.463 70.6127 22.5726 70.733 22.6656C72.1479 23.7602 74.1682 20.0959 74.8586 19.3448C75.5001 18.6469 75.0729 19.6245 75.0869 20.764C75.1149 23.0593 76.2071 23.6704 78.6091 21.8993C79.1912 21.4701 79.6323 20.9103 79.8855 20.3003C79.9606 19.7818 80.0332 19.264 80.104 18.7478C80.089 18.6356 80.067 18.524 80.0378 18.4132C79.6465 19.169 78.5797 21.0222 77.7122 20.2673C76.5208 19.2304 78.176 15.7979 79.4407 17.2871C79.7387 17.6379 79.9339 18.0198 80.0378 18.4132C80.1362 18.223 80.1919 18.1023 80.1908 18.1102C80.1621 18.3224 80.1332 18.535 80.104 18.7478C80.1738 19.2696 80.0925 19.8017 79.8855 20.3003C79.8285 20.6939 79.77 21.0879 79.7096 21.482C80.3995 21.1507 81.0614 20.8459 81.631 20.5778C82.0428 19.0769 83.1289 17.4347 84.0228 17.4148C86.2146 17.3659 83.4272 19.6317 83.1097 19.8273C82.7944 20.0216 82.271 20.2766 81.631 20.5778C81.0614 20.8459 80.3995 21.1507 79.7096 21.482C79.3241 23.9972 78.8615 26.5182 78.2177 28.9667C77.5125 31.649 74.6655 27.2561 74.2389 26.1567C73.6402 24.6136 76.9057 22.8286 79.7096 21.482C79.77 21.0879 79.8285 20.6939 79.8855 20.3003C79.6323 20.9103 79.1912 21.4701 78.6091 21.8993C76.2071 23.6704 75.1149 23.0593 75.0869 20.764C75.0729 19.6245 75.5001 18.6469 74.8586 19.3448C74.1682 20.0959 72.1479 23.7602 70.733 22.6656C70.6127 22.5726 70.5321 22.463 70.486 22.3403C70.0834 22.4115 69.7693 22.2762 69.6405 21.8C69.3778 20.8284 69.543 19.6509 69.0535 18.7488C68.1052 17.0011 66.4762 18.2677 65.8248 19.4016C65.5391 19.8989 65.1432 21.1909 64.954 21.8581C64.9228 22.039 64.8867 22.1822 64.8464 22.2683C64.8363 22.2898 64.8788 22.1233 64.954 21.8581C65.1493 20.7268 65.1518 18.1231 64.7649 18.8339C64.0113 20.2184 63.2649 23.3909 60.7698 23.1623C59.674 23.0619 61.557 18.879 61.7808 18.2947C61.9434 17.8701 61.7387 18.0637 61.3838 18.5106C61.3103 19.1058 60.5286 20.0446 59.528 20.9718C59.5063 20.9984 59.4854 21.0238 59.4653 21.0478C59.1966 21.3684 58.8408 21.6611 58.4655 21.8876C57.2203 22.8899 55.9041 23.7221 55.2419 23.8577C54.9094 23.9258 55.6427 21.7112 55.6821 21.5871C56.1595 20.0861 56.3665 18.3849 55.7148 16.8897C55.2469 15.8161 52.341 20.6593 52.0947 21.133C50.8171 23.5894 52.6328 19.5383 52.6165 18.4082C52.5779 15.72 49.8442 18.1838 48.6792 19.5331C47.6237 21.6178 45.6699 24.439 48.2138 20.1395C48.2924 20.0067 48.4574 19.7901 48.6792 19.5331C49.175 18.5539 49.4726 17.7372 49.0128 17.8973C48.5942 18.043 44.6051 19.6282 42.716 19.5112C42.9096 20.1194 43.0192 20.7898 42.8979 21.133C42.5539 22.1059 41.965 23.0618 41.4629 21.5871C41.2857 21.0666 41.8335 19.9397 42.0676 19.3567C41.9856 19.3124 41.917 19.2581 41.8638 19.1928C39.8461 20.8887 36.3953 22.3725 33.9945 23.5739C32.8815 24.1308 37.0549 21.3523 37.7124 20.8775C40.1118 19.1447 39.7683 19.2218 37.5167 17.8547C33.8938 15.6549 33.4374 16.2138 33.457 18.2315C33.674 17.9855 33.8845 17.7121 34.125 17.4148C35.5543 15.647 33.5379 23.3601 33.5379 21.0336C33.5379 19.9413 33.4643 18.9847 33.457 18.2315C32.9914 18.7592 32.4964 19.1606 31.6138 19.4016C30.8047 19.6225 30.3329 19.383 30.1095 19.172C30.4108 20.1857 29.0686 23.5203 27.6676 22.5521C26.0885 21.4608 27.0909 19.2704 27.9285 18.096C29.0018 16.591 22.5154 23.53 23.4116 21.8141C25.5149 17.7871 24.7853 12.2434 25.4825 7.76458C25.7202 6.23789 28.731 5.28252 31.6839 4.73875C35.4293 4.04906 39.0815 4.02151 36.8645 4.33024Z" fill="#00B428"/>
<path d="M12.4047 4.58569C4.25088 4.58569 28.813 5.45138 36.8645 4.33024C40.8296 3.77811 26.0216 4.30151 25.4825 7.76458C24.7853 12.2434 25.5149 17.7871 23.4116 21.8141C22.5154 23.53 29.0018 16.591 27.9285 18.096C27.0909 19.2704 26.0885 21.4608 27.6676 22.5521C29.1421 23.5711 30.5514 19.8241 30.0483 19.0326C29.7548 18.5708 30.0714 19.8227 31.6138 19.4016C32.9078 19.0483 33.3687 18.3501 34.125 17.4148C35.5543 15.647 33.5379 23.3601 33.5379 21.0336C33.5379 17.0156 32.5412 14.8337 37.5167 17.8547C39.7683 19.2218 40.1118 19.1447 37.7124 20.8775C37.0549 21.3523 32.8815 24.1308 33.9945 23.5739C36.444 22.3481 39.9865 20.8284 41.9847 19.0894C42.6722 18.491 41.1867 20.7757 41.4629 21.5871C41.965 23.0618 42.5539 22.1059 42.8979 21.133C43.2011 20.2753 42.0622 17.3739 41.7727 18.5075C41.1336 21.0105 48.4381 18.0973 49.0128 17.8973C50.4515 17.3964 44.475 26.4585 48.2138 20.1395C48.7051 19.3092 52.5706 15.2081 52.6165 18.4082C52.6328 19.5383 50.8171 23.5894 52.0947 21.133C52.341 20.6593 55.2469 15.8161 55.7148 16.8897C56.3665 18.3849 56.1595 20.0861 55.6821 21.5871C55.6427 21.7112 54.9094 23.9258 55.2419 23.8577C56.7095 23.5572 61.3894 19.8352 61.3894 18.4224C61.3894 16.8369 56.8645 19.6584 56.5138 20.6504C55.5855 23.2761 58.3183 22.4163 59.4653 21.0478C60.2353 20.129 62.194 17.2157 61.7808 18.2947C61.557 18.879 59.674 23.0619 60.7698 23.1623C63.2649 23.3909 64.0113 20.2184 64.7649 18.8339C65.2136 18.0094 65.1385 21.6443 64.8464 22.2683C64.811 22.344 65.4254 20.0967 65.8248 19.4016C66.4762 18.2677 68.1052 17.0011 69.0535 18.7488C69.543 19.6509 69.3778 20.8284 69.6405 21.8C70.1353 23.6302 73.368 20.4254 73.8313 19.8131C77.2254 15.3276 68.787 21.1602 70.733 22.6656C72.1479 23.7602 74.1682 20.0959 74.8586 19.3448C75.5001 18.6469 75.0729 19.6245 75.0869 20.764C75.1149 23.0593 76.2071 23.6704 78.6091 21.8993C80.1323 20.7762 80.6905 18.7587 79.4407 17.2871C78.176 15.7979 76.5208 19.2304 77.7122 20.2673C78.798 21.2122 80.1961 18.0712 80.1908 18.1102C79.7025 21.7225 79.15 25.4207 78.2177 28.9667C77.5125 31.649 74.6655 27.2561 74.2389 26.1567C73.3274 23.8072 81.3732 20.8972 83.1097 19.8273C83.4272 19.6317 86.2146 17.3659 84.0228 17.4148C82.0821 17.4581 79.2357 25.1473 84.349 22.4386C87.1057 20.9782 87.545 20.6965 87.545 18.2805C87.545 17.6545 88.3765 19.3649 89.0126 19.657C90.7378 20.4494 87.724 22.2578 87.0232 23.3184C84.6462 26.9163 90.6942 25.4153 91.9478 23.2333" stroke="#0E0E0C" stroke-width="2" stroke-linecap="round"/>
</svg>
